<?xml version="1.0" encoding="UTF-8" standalone="no"?>
<svg
   xmlns:dc="http://purl.org/dc/elements/1.1/"
   xmlns:cc="http://creativecommons.org/ns#"
   xmlns:rdf="http://www.w3.org/1999/02/22-rdf-syntax-ns#"
   xmlns:svg="http://www.w3.org/2000/svg"
   xmlns="http://www.w3.org/2000/svg"
   xmlns:sodipodi="http://sodipodi.sourceforge.net/DTD/sodipodi-0.dtd"
   xmlns:inkscape="http://www.inkscape.org/namespaces/inkscape"
   height="512px"
   id="Layer_1"
   style="enable-background:new 0 0 512 512;"
   version="1.1"
   viewBox="0 0 512 512"
   width="512px"
   xml:space="preserve"
   inkscape:version="0.91 r13725"
   sodipodi:docname="browse.svg"><metadata
     id="metadata15"><rdf:RDF><cc:Work
         rdf:about=""><dc:format>image/svg+xml</dc:format><dc:type
           rdf:resource="http://purl.org/dc/dcmitype/StillImage" /></cc:Work></rdf:RDF></metadata><defs
     id="defs13" /><sodipodi:namedview
     pagecolor="#ffffff"
     bordercolor="#666666"
     borderopacity="1"
     objecttolerance="10"
     gridtolerance="10"
     guidetolerance="10"
     inkscape:pageopacity="0"
     inkscape:pageshadow="2"
     inkscape:window-width="658"
     inkscape:window-height="480"
     id="namedview11"
     showgrid="false"
     inkscape:zoom="0.4609375"
     inkscape:cx="256"
     inkscape:cy="256"
     inkscape:window-x="0"
     inkscape:window-y="0"
     inkscape:window-maximized="0"
     inkscape:current-layer="Layer_1" /><g
     id="g3"
     style="fill:#ffffff;fill-opacity:1"><path
       d="M430.1,192H81.9c-17.7,0-18.6,9.2-17.6,20.5l13,183c0.9,11.2,3.5,20.5,21.1,20.5h316.2c18,0,20.1-9.2,21.1-20.5l12.1-185.3   C448.7,199,447.8,192,430.1,192z"
       id="path5"
       style="fill:#ffffff;fill-opacity:1" /><g
       id="g7"
       style="fill:#ffffff;fill-opacity:1"><path
         d="M426.2,143.3c-0.5-12.4-4.5-15.3-15.1-15.3c0,0-121.4,0-143.2,0c-21.8,0-24.4,0.3-40.9-17.4C213.3,95.8,218.7,96,190.4,96    c-22.6,0-75.3,0-75.3,0c-17.4,0-23.6-1.5-25.2,16.6c-1.5,16.7-5,57.2-5.5,63.4h343.4L426.2,143.3z"
         id="path9"
         style="fill:#ffffff;fill-opacity:1" /></g></g></svg>