<?xml version="1.0" encoding="UTF-8" standalone="no"?>
<!-- Generator: Adobe Illustrator 16.2.1, SVG Export Plug-In . SVG Version: 6.00 Build 0)  -->

<svg
   xmlns:dc="http://purl.org/dc/elements/1.1/"
   xmlns:cc="http://creativecommons.org/ns#"
   xmlns:rdf="http://www.w3.org/1999/02/22-rdf-syntax-ns#"
   xmlns:svg="http://www.w3.org/2000/svg"
   xmlns="http://www.w3.org/2000/svg"
   xmlns:sodipodi="http://sodipodi.sourceforge.net/DTD/sodipodi-0.dtd"
   xmlns:inkscape="http://www.inkscape.org/namespaces/inkscape"
   version="1.1"
   id="Layer_1"
   x="0px"
   y="0px"
   width="512px"
   height="512px"
   viewBox="0 0 512 512"
   style="enable-background:new 0 0 512 512;"
   xml:space="preserve"
   inkscape:version="0.91 r13725"
   sodipodi:docname="loop.svg"><metadata
     id="metadata13"><rdf:RDF><cc:Work
         rdf:about=""><dc:format>image/svg+xml</dc:format><dc:type
           rdf:resource="http://purl.org/dc/dcmitype/StillImage" /></cc:Work></rdf:RDF></metadata><defs
     id="defs11" /><sodipodi:namedview
     pagecolor="#ffffff"
     bordercolor="#666666"
     borderopacity="1"
     objecttolerance="10"
     gridtolerance="10"
     guidetolerance="10"
     inkscape:pageopacity="0"
     inkscape:pageshadow="2"
     inkscape:window-width="662"
     inkscape:window-height="480"
     id="namedview9"
     showgrid="false"
     inkscape:zoom="0.4609375"
     inkscape:cx="256"
     inkscape:cy="256"
     inkscape:window-x="0"
     inkscape:window-y="0"
     inkscape:window-maximized="0"
     inkscape:current-layer="g3" /><g
     id="g3"><path
       d="M273.4,300.5l-0.3,58c48.9-8.2,86.3-51,86.3-102.5c0-15.9-3.6-31-10-44.5c-2.8-5.8-6-11.3-9.8-16.5l47.1-43.5   c1.1,1.3,2.1,2.7,3.1,4c20.9,28,33.2,62.8,33.2,100.5c0,1.2,0,2.5,0,3.7c-1.5,71.5-47.6,132-111.4,154.6   c-12.3,4.3-25.2,7.3-38.5,8.7l-0.1,57l-76.2-67L170.6,390l44.4-38.7L273.4,300.5z"
       id="path5"
       style="fill:#ffffff" /><path
       d="M89,252.3c1.6-72.1,48.3-133,112.9-155.2c11.7-4,24-6.8,36.8-8.1l0.1-57l76.1,66.9l26.2,23.1l-44.3,38.6l-58.4,50.9   l0.2-57.9c-48.8,8.3-86,51.1-86,102.4c0,16,3.6,31.1,10.1,44.7c2.7,5.8,6,11.2,9.7,16.3l-47,43.6c-1.3-1.6-2.6-3.3-3.8-5   C101.1,327.7,89,293.3,89,256C89,254.8,89,253.5,89,252.3z"
       id="path7"
       style="fill:#ffffff" /></g></svg>