<?xml version="1.0" encoding="UTF-8" standalone="no"?>
<!-- Generator: Adobe Illustrator 16.2.1, SVG Export Plug-In . SVG Version: 6.00 Build 0)  -->

<svg
   xmlns:dc="http://purl.org/dc/elements/1.1/"
   xmlns:cc="http://creativecommons.org/ns#"
   xmlns:rdf="http://www.w3.org/1999/02/22-rdf-syntax-ns#"
   xmlns:svg="http://www.w3.org/2000/svg"
   xmlns="http://www.w3.org/2000/svg"
   xmlns:sodipodi="http://sodipodi.sourceforge.net/DTD/sodipodi-0.dtd"
   xmlns:inkscape="http://www.inkscape.org/namespaces/inkscape"
   version="1.1"
   id="Layer_1"
   x="0px"
   y="0px"
   width="512px"
   height="512px"
   viewBox="0 0 512 512"
   style="enable-background:new 0 0 512 512;"
   xml:space="preserve"
   inkscape:version="0.91 r13725"
   sodipodi:docname="shuffle.svg"><metadata
     id="metadata9"><rdf:RDF><cc:Work
         rdf:about=""><dc:format>image/svg+xml</dc:format><dc:type
           rdf:resource="http://purl.org/dc/dcmitype/StillImage" /></cc:Work></rdf:RDF></metadata><defs
     id="defs7" /><sodipodi:namedview
     pagecolor="#ffffff"
     bordercolor="#666666"
     borderopacity="1"
     objecttolerance="10"
     gridtolerance="10"
     guidetolerance="10"
     inkscape:pageopacity="0"
     inkscape:pageshadow="2"
     inkscape:window-width="662"
     inkscape:window-height="480"
     id="namedview5"
     showgrid="false"
     inkscape:zoom="0.4609375"
     inkscape:cx="256"
     inkscape:cy="256"
     inkscape:window-x="0"
     inkscape:window-y="0"
     inkscape:window-maximized="0"
     inkscape:current-layer="Layer_1" /><path
     d="M370.1,181.3H399v47.3l81-83.2L399,64v54h-28.9c-82.7,0-129.4,61.9-170.6,116.5c-37,49.1-69,95.4-120.6,95.4H32v63.3h46.9  c82.7,0,129.4-65.8,170.6-120.4C286.5,223.7,318.4,181.3,370.1,181.3z M153.2,217.5c3.5-4.6,7.1-9.3,10.7-14.1  c8.8-11.6,18-23.9,28-36.1c-29.6-27.9-65.3-48.5-113-48.5H32v63.3c0,0,13.3-0.6,46.9,0C111.4,182.8,131.8,196.2,153.2,217.5z   M399,330.4h-28.9c-31.5,0-55.7-15.8-78.2-39.3c-2.2,3-4.5,6-6.8,9c-9.9,13.1-20.5,27.2-32.2,41.1c30.4,29.9,67.2,52.5,117.2,52.5  H399V448l81-81.4l-81-83.2V330.4z"
     id="path3"
     style="fill:#ffffff" /></svg>